<?xml version="1.0" encoding="utf-8"?>
<!-- Generator: Adobe Illustrator 25.2.0, SVG Export Plug-In . SVG Version: 6.00 Build 0)  -->
<svg version="1.1" id="Layer_1" xmlns="http://www.w3.org/2000/svg" xmlns:xlink="http://www.w3.org/1999/xlink" x="0px" y="0px"
	 viewBox="0 0 512 512" style="enable-background:new 0 0 512 512;" xml:space="preserve">
<style type="text/css">
	.st0{fill:#2B7C6E;}
</style>
<g>
	<path class="st0" d="M244,413.2c-57.2,0-114.5,0-171.7,0.1c-8.1,0-14.3-3-17.9-10.2c-3.8-7.6-2.9-15.2,2.4-21.8
		c7.7-9.5,15.8-18.8,22.1-29.3c16.1-27,23.3-56.4,23.8-87.6c0.2-14.1-0.6-28.3,1.9-42.3c9-49.4,34.8-85.7,82.5-104.4
		c4.4-1.7,5.5-3.5,5.4-8.1c-0.6-25.4,14.3-46.5,36.8-53.2c30.2-8.9,62.5,13.3,64.8,44.5c0.1,2,0.5,4,0.6,6c0.2,3.1-2,6.7,0,9
		c1.6,1.9,5.3,2.1,8,3.2c41.2,17.4,66.3,48.5,77.3,91.5c4.3,16.7,4.7,33.7,4.4,50.8c-0.4,19.1,2.6,37.7,8.1,55.9
		c7.3,24.1,20.6,44.5,37.2,63.1c10.4,11.6,6.5,27.9-7.5,32.3c-2.6,0.8-5.2,0.5-7.9,0.5C357.5,413.2,300.8,413.2,244,413.2L244,413.2
		z M173.5,285.9c-0.3,0-0.5,0.2-0.6,0.4c-1.1,0.5-1.8,1.4-1.8,2.7c0,19.6,0,39.1,0,58.7c0.7,2.8,2.6,3.9,5.4,3.9
		c8.2-0.1,16.4,0,24.5,0c2.3,0,4.3-0.5,5.2-2.9c0.1-0.8,0.4-1.5,0.4-2.3c0-18.5,0.1-37,0-55.5c0-1.3,0.2-2.8-1.1-3.9l0,0
		c-1.1-2-3.1-1.8-4.9-1.8c-4.5,0-9-0.2-13.5,0c-4.6,0.2-9.2-0.9-13.7,0.8L173.5,285.9z M260.3,249.9c-0.2-2.2-1.5-3.3-3.6-3.6
		c-5.7,0-11.4-0.3-17-0.1c-4.1,0.1-8.2-1-12.2,0.7c-0.3-0.1-0.5,0-0.7,0.3c-0.5,0-0.8,0.2-0.8,0.8c-0.2,0.2-0.3,0.4-0.2,0.6
		c-0.9,0.7-0.8,1.6-0.8,2.5c0,32.2,0.1,64.5,0.1,96.7c0.6,2.9,2.6,3.9,5.4,3.9c8.1-0.1,16.2-0.1,24.3,0c2.8,0,4.8-0.9,5.5-3.8
		C260.3,315.2,260.3,282.5,260.3,249.9z M278.4,209.7c0,0.8-0.1,1.5-0.1,2.3c0,44.5,0,88.9,0,133.4c0,1.1,0.2,2.2,0.3,3.2
		c0.5,1.7,1.7,2.7,3.5,2.8c8.7,0,17.4,0,26.1,0c0.8,0.2,1.6,0.3,2-0.6c0.3,0,0.5-0.2,0.7-0.4c1.2-0.5,1.6-1.5,1.8-2.7
		c0.1-37.6,0.1-75.2,0.1-112.9c0-8.4-0.1-16.8-0.2-25.2c-0.8-2.9-3-3.7-5.7-3.7c-7.6,0-15.2,0-22.8,0
		C281.5,206.2,279.1,206.7,278.4,209.7z M242.9,82.4c-12.8,0-23.9,10.9-23.6,23.2c0,1.8-0.2,2.9,2.6,2.6c14.1-1.5,28.2-2,42.2,0.4
		c2.9,0.5,2.1-1.7,2.1-2.9C266.8,93.5,255.6,82.3,242.9,82.4z"/>
	<path class="st0" d="M301.5,433.8c-1.6,31.7-25.9,54.4-57.5,55.2c-24.6,0.6-52.4-16.3-57.9-46.3c-0.5-2.9,0.2-5.9-1-8.7
		c0.6-0.1,1.2-0.2,1.8-0.2C225.1,433.7,263.3,433.8,301.5,433.8z"/>
	<path class="st0" d="M342.5,24c4.4-0.3,7.5,2.1,11,3.3c25.9,8.6,47.6,23.6,65.7,43.9c14.1,15.8,23.7,34.2,30.7,54.1
		c1.1,3.1,2.2,6.1,3.2,9.2c2.1,6.9-1.5,14.4-7.8,16.2c-6.6,1.9-13-2.1-15.2-9.3c-13.8-45.9-42.4-77.5-89-91.6
		c-6.1-1.9-9.9-5.9-10.4-12.2c-0.4-5.1,1.5-9.4,6.2-12.1C338.7,24.4,340.7,23.6,342.5,24z"/>
	<path class="st0" d="M328,72.2c6.1,0.1,11.3,3.1,16.6,5.3c30.2,12.5,49.3,35.5,60.3,65.7c3.9,10.6-2.8,19.2-13.1,18
		c-5.4-0.7-8.2-4.3-10-9.1c-8.1-21.5-22.6-37.4-42.7-48.2c-4.5-2.4-9.4-3.8-14.2-5.4c-5-1.6-8.5-4.9-9.3-10.4s0.5-10.1,5.1-13.6
		C322.8,72.7,325.3,72.3,328,72.2z"/>
	<path class="st0" d="M301.5,433.8c-38.2,0-76.4-0.1-114.5-0.1c-0.6,0-1.2,0.1-1.8,0.2c1.5-1.5,3.5-1.1,5.3-1.1
		c35.2,0,70.5,0,105.7,0C298,432.8,299.9,432.5,301.5,433.8z"/>
	<path class="st0" d="M278.4,209.7c1.1,1.9,0.8,3.9,0.8,5.9c0,42.5,0,85,0,127.5c0,1.8,0.2,3.7-0.6,5.5c-0.1-1.1-0.3-2.2-0.3-3.2
		c0-44.5,0-88.9,0-133.4C278.2,211.3,278.3,210.5,278.4,209.7z"/>
	<path class="st0" d="M312.6,347.8c-1.1-1.9-0.8-3.9-0.8-5.9c0-42.1,0-84.1,0-126.2c0-2-0.3-4.1,0.7-5.9c0.1,8.4,0.2,16.8,0.2,25.2
		C312.7,272.6,312.6,310.2,312.6,347.8z"/>
	<path class="st0" d="M225.8,248.5c0,31.7,0.1,63.4,0.1,95.2c0,1.4,0,2.8-0.8,4.1c0-32.2-0.1-64.5-0.1-96.7
		C225,250.2,224.9,249.2,225.8,248.5z"/>
	<path class="st0" d="M260.3,347.8c-1-1.7-0.8-3.6-0.8-5.4c0-29,0-58,0-87c0-1.8-0.2-3.7,0.8-5.5
		C260.3,282.5,260.3,315.2,260.3,347.8z"/>
	<path class="st0" d="M206.2,348.7c-0.8-1.2-0.8-2.7-0.8-4c0-19.2,0.1-38.4,0.1-57.6c1.3,1,1.1,2.5,1.1,3.9c0,18.5,0,37,0,55.5
		C206.6,347.2,206.3,348,206.2,348.7z"/>
	<path class="st0" d="M171,289.1c0.9,1.4,0.8,3,0.8,4.5c0,16.6,0,33.1,0,49.7c0,1.5,0.1,3.1-0.8,4.5C171,328.2,171,308.6,171,289.1z
		"/>
	<path class="st0" d="M205.5,287.1c-10.6-1.7-21.4-0.3-32.1-1c4.5-1.7,9.1-0.6,13.7-0.8c4.5-0.2,9,0,13.5,0
		C202.5,285.3,204.4,285.1,205.5,287.1z"/>
	<path class="st0" d="M256.7,246.3c-9.7,1.7-19.5,0.5-29.2,0.6c4-1.7,8.1-0.6,12.2-0.7C245.3,246,251,246.2,256.7,246.3z"/>
	<path class="st0" d="M282,351.4c8.7-1.3,17.4-1.3,26.1,0C299.4,351.4,290.7,351.4,282,351.4z"/>
</g>
</svg>
